# xmcd
#
# Track frame offsets: 
#        150
#        16110
#        39205
#        63712
#        80795
#
# Disc length: 1316 seconds
#
# Revision: 2
# Processed by: cddbd v1.5.2PL0 Copyright (c) Steve Scherf et al.
# Submitted via: ExactAudioCopyFreeDBPlugin 1.0
#
DISCID=36052205
DTITLE=Various Artist - Niagara Summer
DYEAR=2006
DGENRE=Pop
TTITLE0=A面で恋をして - 曽我部恵一
TTITLE1=君は天然色 - 加藤智子 from La Turbo
TTITLE2=我が心のピンボール - 林夕紀子
TTITLE3=カナリア諸島にて - 石原顕三郎 from The Travellers
TTITLE4=ナイアガラ音頭 - かりゆし
EXTD=YEAR: 2006
EXTT0=
EXTT1=
EXTT2=
EXTT3=
EXTT4=
PLAYORDER=
